# xmcd CD database file
#
# Track frame offsets:
#	150
#	3055
#	17135
#	18485
#	35810
#	37555
#	52780
#	53927
#	66542
#	68175
#	82607
#	84397
#	104410
#	105692
#	120972
#	122067
#	156240
#	157612
#	175159
#	176070
#	188697
#	209692
#	211837
#	227192
#	239137
#	240370
#	250065
#	253432
#	275192
#	278895
#	318727
#
# Disc length: 4325 seconds
#
# Revision: 0
# Processed by: cddbd v1.5PL3 Copyright (c) Steve Scherf et al.
# Submitted via: CDex 1.60beta1
#
DISCID=ab10e31f
DTITLE=Dick Wellstood - A Night in Dublin
DYEAR=2001
DGENRE=Jazz
TTITLE0=Maple Leaf Rag
TTITLE1=Maple Leaf Rag
TTITLE2=Pork and Beans
TTITLE3=Fig Leaf Rag
TTITLE4=Russian Rag
TTITLE5=Pork and Beans
TTITLE6=Carolina Shout
TTITLE7=Kitten on the Keys
TTITLE8=Ain't Misbehavin'
TTITLE9=Russian Rag
TTITLE10=I've Got a Feeling I'm Falling
TTITLE11=Snowy Morning Blues
TTITLE12=Handful of Keys
TTITLE13=Carolina Shout
TTITLE14=Giant Steps
TTITLE15=Fats Waller Medley: Keepin' Out Mischief Now/Ain't Misbehavin'/Honeysuc
TTITLE16=I Concentrate on You
TTITLE17=Viper's Drag
TTITLE18=Handful of Keys
TTITLE19=Sophisticated Lady
TTITLE20=Paganini's Thing
TTITLE21=Caravan
TTITLE22=Giant Steps
TTITLE23=Alice Blue Gown
TTITLE24=blank
TTITLE25=I Concentrate on You
TTITLE26=blank
TTITLE27=Superstar
TTITLE28=blank
TTITLE29=Ellington Suite: Prelude to a Kiss/Sophisticated Lady/Perdidio/Caravan
TTITLE30=Just the Blues
EXTD=YEAR: 2001
EXTT0=
EXTT1=
EXTT2=
EXTT3=
EXTT4=
EXTT5=
EXTT6=
EXTT7=
EXTT8=
EXTT9=
EXTT10=
EXTT11=
EXTT12=
EXTT13=
EXTT14=
EXTT15=
EXTT16=
EXTT17=
EXTT18=
EXTT19=
EXTT20=
EXTT21=
EXTT22=
EXTT23=
EXTT24=
EXTT25=
EXTT26=
EXTT27=
EXTT28=
EXTT29=
EXTT30=
PLAYORDER=
